<?xml version="1.0" encoding="utf-8"?>
<!-- generated at drububu.com  -->
<!DOCTYPE svg PUBLIC "-//W3C//DTD SVG 1.1//EN" "http://www.w3.org/Graphics/SVG/1.1/DTD/svg11.dtd">
<svg version="1.1" preserveAspectRatio="xMinYMin meet" xmlns="http://www.w3.org/2000/svg" xmlns:xlink="http://www.w3.org/1999/xlink" x="0px" y="0px" width="512px" height="62px" viewBox="0 0 512 62">
<path d="M0 0h18v2h-16v12h-2v-14z" fill="rgb(252,252,252)"/>
<path d="M18 0h12v14h-28v-12h16v-2z" fill="rgb(116,116,116)"/>
<path d="M30 0h2v16h-32v-2h30v-14z" fill="rgb(0,0,0)"/>
<path d="M32 0h14v2h-12v16h-32v12h-2v-14h32v-16z" fill="rgb(252,252,252)"/>
<path d="M46 0h2v14h14v-14h2v14h46v-14h2v14h14v-14h2v30h-2v-14h-30v16h-16v14h-2
	v2h-16v-16h-14v16h-16v14h-2v-14h-14v14h-2v-16h32v-14h-46v-2h46v-30z" fill="rgb(0,0,0)"/>
<path d="M48 0h2v14h-2v-14z" fill="rgb(252,252,252)"/>
<path d="M50 0h12v14h-12v-14z" fill="rgb(116,116,116)"/>
<path d="M64 0h34v2h-32v12h-2v-14z" fill="rgb(252,252,252)"/>
<path d="M98 0h12v14h-44v-12h32v-2z" fill="rgb(116,116,116)"/>
<path d="M112 0h2v14h-2v-14z" fill="rgb(252,252,252)"/>
<path d="M114 0h12v14h-12v-14z" fill="rgb(116,116,116)"/>
<path d="M128 0h30v2h-28v28h-2v-30z" fill="rgb(252,252,252)"/>
<path d="M158 0h2v14h14v-14h2v14h30v-14h2v46h-2v-30h-46v14h32v16h-2v-14h-62v-2
	h30v-30z" fill="rgb(0,0,0)"/>
<path d="M160 0h2v14h-2v-14z" fill="rgb(252,252,252)"/>
<path d="M162 0h12v14h-12v-14z" fill="rgb(116,116,116)"/>
<path d="M176 0h18v2h-16v12h-2v-14z" fill="rgb(252,252,252)"/>
<path d="M194 0h12v14h-28v-12h16v-2z" fill="rgb(116,116,116)"/>
<path d="M208 0h28v2h-26v44h-2v-46z" fill="rgb(252,252,252)"/>
<path d="M236 0h2v14h-16v32h-12v-44h26v-2z" fill="rgb(116,116,116)"/>
<path d="M238 0h2v30h14v-16h16v-14h2v14h32v16h14v-30h2v14h30v-14h2v16h-16v14h-2
	v-14h-14v16h-16v14h-2v-30h-30v30h-2v-30h-14v16h-16v14h-2v-30h-14v32h-16v-2h14
	v-32h16v-14z" fill="rgb(0,0,0)"/>
<path d="M240 0h18v2h-16v28h-2v-30z" fill="rgb(252,252,252)"/>
<path d="M258 0h12v14h-16v16h-12v-28h16v-2z" fill="rgb(116,116,116)"/>
<path d="M272 0h46v2h-44v12h-2v-14z" fill="rgb(252,252,252)"/>
<path d="M320 0h2v14h-2v-14z" fill="rgb(252,252,252)"/>
<path d="M322 0h28v14h-28v-14z" fill="rgb(116,116,116)"/>
<path d="M352 0h2v18h-16v12h-2v-14h16v-16z" fill="rgb(252,252,252)"/>
<path d="M354 0h12v30h-28v-12h16v-18z" fill="rgb(116,116,116)"/>
<path d="M366 0h2v30h-2v-30z" fill="rgb(0,0,0)"/>
<path d="M368 0h2v30h-2v-30z" fill="rgb(252,252,252)"/>
<path d="M370 0h12v2h16v12h-16v16h-12v-30z" fill="rgb(116,116,116)"/>
<path d="M382 0h16v2h-16v-2z" fill="rgb(252,252,252)"/>
<path d="M398 0h2v30h14v2h-16v-16h-14v16h-15v-2h13v-16h16v-14z" fill="rgb(0,0,0)"/>
<path d="M400 0h2v30h-2v-30z" fill="rgb(252,252,252)"/>
<path d="M402 0h12v30h-12v-30z" fill="rgb(116,116,116)"/>
<path d="M414 0h2v30h-2v-30z" fill="rgb(0,0,0)"/>
<path d="M416 0h2v30h-2v-30z" fill="rgb(252,252,252)"/>
<path d="M418 0h12v18h16v12h-28v-30z" fill="rgb(116,116,116)"/>
<path d="M430 0h2v14h14v2h-16v-16z" fill="rgb(0,0,0)"/>
<path d="M432 0h62v2h-60v12h-2v-14z" fill="rgb(252,252,252)"/>
<path d="M494 0h2v14h14v-14h2v32h-2v-16h-14v46h-2v-14h-14v-2h14v-30h-30v-2h30
	v-14z" fill="rgb(0,0,0)"/>
<path d="M496 0h2v14h-2v-14z" fill="rgb(252,252,252)"/>
<path d="M498 0h12v14h-12v-14z" fill="rgb(116,116,116)"/>
<path d="M34 2h12v28h-44v-12h32v-16z" fill="rgb(116,116,116)"/>
<path d="M130 2h28v28h-28v-28z" fill="rgb(116,116,116)"/>
<path d="M274 2h44v28h-12v-16h-32v-12z" fill="rgb(116,116,116)"/>
<path d="M434 2h60v12h-60v-12z" fill="rgb(116,116,116)"/>
<path d="M304 14h2v16h-2v-16z" fill="rgb(252,252,252)"/>
<path d="M446 14h18v32h16v16h-162v-16h16v-16h35v16h45v-16h32v-16z" fill="rgb(255,255,255)"/>
<path d="M48 16h46v2h-44v12h-2v-14z" fill="rgb(252,252,252)"/>
<path d="M96 16h30v2h-28v16h-16v12h-2v-14h16v-16z" fill="rgb(252,252,252)"/>
<path d="M160 16h46v2h-44v12h-2v-14z" fill="rgb(252,252,252)"/>
<path d="M224 16h14v2h-12v32h-16v12h-2v-14h16v-32z" fill="rgb(252,252,252)"/>
<path d="M256 16h14v2h-12v14h-2v-16z" fill="rgb(252,252,252)"/>
<path d="M272 16h30v2h-28v28h-2v-30z" fill="rgb(252,252,252)"/>
<path d="M320 16h14v2h-12v16h-16v28h-2v-30h16v-16z" fill="rgb(252,252,252)"/>
<path d="M384 16h14v2h-12v14h-2v-16z" fill="rgb(252,252,252)"/>
<path d="M430 16h16v2h-16v-2z" fill="rgb(252,252,252)"/>
<path d="M464 16h30v2h-28v28h-2v-30z" fill="rgb(252,252,252)"/>
<path d="M496 16h14v2h-12v44h-2v-46z" fill="rgb(252,252,252)"/>
<path d="M50 18h44v12h-16v16h-12v-14h-2v-2h-14v-12z" fill="rgb(116,116,116)"/>
<path d="M98 18h28v12h-16v16h-28v-12h16v-16z" fill="rgb(116,116,116)"/>
<path d="M162 18h44v28h-12v-16h-32v-12z" fill="rgb(116,116,116)"/>
<path d="M226 18h12v44h-28v-12h16v-32z" fill="rgb(116,116,116)"/>
<path d="M258 18h12v44h-12v-16h-16v-12h14v-2h2v-14z" fill="rgb(116,116,116)"/>
<path d="M274 18h28v28h-28v-28z" fill="rgb(116,116,116)"/>
<path d="M322 18h12v28h-16v16h-12v-28h16v-16z" fill="rgb(116,116,116)"/>
<path d="M386 18h12v14h2v2h14v12h-44v-12h14v-2h2v-14z" fill="rgb(116,116,116)"/>
<path d="M466 18h28v28h-28v-28z" fill="rgb(116,116,116)"/>
<path d="M498 18h12v16h2v12h-2v16h-12v-44z" fill="rgb(116,116,116)"/>
<path d="M110 30h18v16h80v16h-130v-16h32v-16z" fill="rgb(255,255,255)"/>
<path d="M192 30h2v16h-2v-16z" fill="rgb(252,252,252)"/>
<path d="M0 32h46v2h-44v28h-2v-30z" fill="rgb(252,252,252)"/>
<path d="M48 32h14v2h-12v14h-2v-16z" fill="rgb(252,252,252)"/>
<path d="M64 32h2v14h-2v-14z" fill="rgb(252,252,252)"/>
<path d="M128 32h62v2h-60v12h-2v-14z" fill="rgb(252,252,252)"/>
<path d="M240 32h16v2h-14v12h-2v-14z" fill="rgb(252,252,252)"/>
<path d="M369 32h15v2h-14v12h-1v-14z" fill="rgb(252,252,252)"/>
<path d="M400 32h14v2h-14v-2z" fill="rgb(252,252,252)"/>
<path d="M510 32h2v2h-2v-2z" fill="rgb(252,252,252)"/>
<path d="M2 34h44v12h-32v16h-12v-28z" fill="rgb(116,116,116)"/>
<path d="M50 34h12v14h2v2h14v12h-44v-12h14v-2h2v-14z" fill="rgb(116,116,116)"/>
<path d="M130 34h60v12h-60v-12z" fill="rgb(116,116,116)"/>
<path d="M238 46h18v16h-18v-16z" fill="rgb(255,255,255)"/>
<path d="M256 46h2v16h-2v-16z" fill="rgb(252,252,252)"/>
<path d="M270 46h34v16h-34v-16z" fill="rgb(255,255,255)"/>
<path d="M510 46h2v16h-2v-16z" fill="rgb(0,0,0)"/>
<path d="M16 48h14v2h-12v12h-2v-14z" fill="rgb(252,252,252)"/>
<path d="M32 48h16v2h-14v12h-2v-14z" fill="rgb(252,252,252)"/>
<path d="M64 48h14v2h-14v-2z" fill="rgb(252,252,252)"/>
<path d="M480 48h14v2h-12v12h-2v-14z" fill="rgb(252,252,252)"/>
<path d="M18 50h12v12h-12v-12z" fill="rgb(116,116,116)"/>
<path d="M482 50h12v12h-12v-12z" fill="rgb(116,116,116)"/>
</svg>