<?xml version="1.0" encoding="utf-8"?>
<!-- generated at drububu.com  -->
<!DOCTYPE svg PUBLIC "-//W3C//DTD SVG 1.1//EN" "http://www.w3.org/Graphics/SVG/1.1/DTD/svg11.dtd">
<svg version="1.1" preserveAspectRatio="xMinYMin meet" xmlns="http://www.w3.org/2000/svg" xmlns:xlink="http://www.w3.org/1999/xlink" x="0px" y="0px" width="512px" height="448px" viewBox="0 0 512 448">
<path d="M0 0h18v2h-16v12h-2v-14z" fill="rgb(252,252,252)"/>
<path d="M18 0h12v14h-28v-12h16v-2z" fill="rgb(116,116,116)"/>
<path d="M30 0h2v16h-32v-2h30v-14z" fill="rgb(0,0,0)"/>
<path d="M32 0h14v2h-12v16h-32v12h-2v-14h32v-16z" fill="rgb(252,252,252)"/>
<path d="M46 0h2v14h14v-14h2v14h46v-14h2v14h14v-14h2v30h-2v-14h-30v16h-16v14h-2
	v2h-16v-16h-14v16h-16v14h-2v-14h-14v16h-16v-2h14v-16h32v-14h-46v-2h46v-30z" fill="rgb(0,0,0)"/>
<path d="M48 0h2v14h-2v-14z" fill="rgb(252,252,252)"/>
<path d="M50 0h12v14h-12v-14z" fill="rgb(116,116,116)"/>
<path d="M64 0h34v2h-32v12h-2v-14z" fill="rgb(252,252,252)"/>
<path d="M98 0h12v14h-44v-12h32v-2z" fill="rgb(116,116,116)"/>
<path d="M112 0h2v14h-2v-14z" fill="rgb(252,252,252)"/>
<path d="M114 0h12v14h-12v-14z" fill="rgb(116,116,116)"/>
<path d="M128 0h30v2h-28v28h-2v-30z" fill="rgb(252,252,252)"/>
<path d="M158 0h2v14h14v-14h2v14h30v-14h2v46h-2v-30h-46v14h32v16h-2v-14h-62v-2
	h30v-30z" fill="rgb(0,0,0)"/>
<path d="M160 0h2v14h-2v-14z" fill="rgb(252,252,252)"/>
<path d="M162 0h12v14h-12v-14z" fill="rgb(116,116,116)"/>
<path d="M176 0h18v2h-16v12h-2v-14z" fill="rgb(252,252,252)"/>
<path d="M194 0h12v14h-28v-12h16v-2z" fill="rgb(116,116,116)"/>
<path d="M208 0h28v2h-26v44h-2v-46z" fill="rgb(252,252,252)"/>
<path d="M236 0h2v14h-16v32h-12v-44h26v-2z" fill="rgb(116,116,116)"/>
<path d="M238 0h2v30h14v-16h16v-14h2v14h32v16h14v-30h2v14h30v-14h2v16h-16v14h-2
	v-14h-14v16h-16v14h-2v-30h-30v30h-2v-30h-14v16h-16v14h-2v-30h-14v32h-16v-2h14
	v-32h16v-14z" fill="rgb(0,0,0)"/>
<path d="M240 0h18v2h-16v28h-2v-30z" fill="rgb(252,252,252)"/>
<path d="M258 0h12v14h-16v16h-12v-28h16v-2z" fill="rgb(116,116,116)"/>
<path d="M272 0h46v2h-44v12h-2v-14z" fill="rgb(252,252,252)"/>
<path d="M320 0h2v14h-2v-14z" fill="rgb(252,252,252)"/>
<path d="M322 0h28v14h-28v-14z" fill="rgb(116,116,116)"/>
<path d="M352 0h2v18h-16v12h-2v-14h16v-16z" fill="rgb(252,252,252)"/>
<path d="M354 0h12v30h-28v-12h16v-18z" fill="rgb(116,116,116)"/>
<path d="M366 0h2v30h-2v-30z" fill="rgb(0,0,0)"/>
<path d="M368 0h2v30h-2v-30z" fill="rgb(252,252,252)"/>
<path d="M370 0h12v2h16v12h-16v16h-12v-30z" fill="rgb(116,116,116)"/>
<path d="M382 0h16v2h-16v-2z" fill="rgb(252,252,252)"/>
<path d="M398 0h2v30h14v2h-16v-16h-14v16h-15v-2h13v-16h16v-14z" fill="rgb(0,0,0)"/>
<path d="M400 0h2v30h-2v-30z" fill="rgb(252,252,252)"/>
<path d="M402 0h12v30h-12v-30z" fill="rgb(116,116,116)"/>
<path d="M414 0h2v30h-2v-30z" fill="rgb(0,0,0)"/>
<path d="M416 0h2v30h-2v-30z" fill="rgb(252,252,252)"/>
<path d="M418 0h12v18h16v12h-28v-30z" fill="rgb(116,116,116)"/>
<path d="M430 0h2v14h14v2h-16v-16z" fill="rgb(0,0,0)"/>
<path d="M432 0h62v2h-60v12h-2v-14z" fill="rgb(252,252,252)"/>
<path d="M494 0h2v14h14v-14h2v32h-2v-16h-14v46h14v-16h2v130h-2v-16h-14v46h14
	v-16h2v130h-16v14h16v98h-16v14h16v2h-18v-16h-30v14h16v2h-18v-16h-14v16h-34v-16
	h-16v-16h2v14h16v16h14v-30h2v30h14v-16h32v-14h2v14h30v-30h-30v-2h30v-30h-14v16
	h-16v-2h14v-16h16v-30h-14v16h-16v-2h14v-32h16v-14h-30v14h-2v-16h16v-30h-14v-2h-2
	v-16h16v-14h-30v-2h32v16h14v-30h-46v-1h16v-1h30v-14h-16v-32h-14v-2h14v-30h-16
	v-16h2v14h14v-62h-14v-2h16v16h14v-30h-16v-16h-14v-2h14v-30h-30v-2h30v-14z" fill="rgb(0,0,0)"/>
<path d="M496 0h2v14h-2v-14z" fill="rgb(252,252,252)"/>
<path d="M498 0h12v14h-12v-14z" fill="rgb(116,116,116)"/>
<path d="M34 2h12v28h-44v-12h32v-16z" fill="rgb(116,116,116)"/>
<path d="M130 2h28v28h-28v-28z" fill="rgb(116,116,116)"/>
<path d="M274 2h44v28h-12v-16h-32v-12z" fill="rgb(116,116,116)"/>
<path d="M434 2h60v12h-60v-12z" fill="rgb(116,116,116)"/>
<path d="M304 14h2v16h-2v-16z" fill="rgb(252,252,252)"/>
<path d="M446 14h18v32h16v82h-16v30h16v65h-16v17h-16v14h16v16h16v18h-16v30h16
	v66h-16v14h16v18h-50v-15h-14v15h-48v16h-18v-16h-78v16h-18v-16h-62v16h-66v-16h-30
	v16h-16v16h-18v-16h-16v-16h-16v-50h16v-14h-16v-34h16v-46h-16v-82h16v-14h-16
	v-18h16v-14h-32v-34h16v-14h-16v-18h16v-16h48v-16h32v-16h18v16h80v16h30v-16h18v16
	h14v-16h34v16h14v-16h16v-16h35v16h45v-16h32v-16z" fill="rgb(255,255,255)"/>
<path d="M48 16h46v2h-44v12h-2v-14z" fill="rgb(252,252,252)"/>
<path d="M96 16h30v2h-28v16h-16v12h-2v-14h16v-16z" fill="rgb(252,252,252)"/>
<path d="M160 16h46v2h-44v12h-2v-14z" fill="rgb(252,252,252)"/>
<path d="M224 16h14v2h-12v32h-16v12h-2v-14h16v-32z" fill="rgb(252,252,252)"/>
<path d="M256 16h14v2h-12v14h-2v-16z" fill="rgb(252,252,252)"/>
<path d="M272 16h30v2h-28v28h-2v-30z" fill="rgb(252,252,252)"/>
<path d="M320 16h14v2h-12v16h-16v28h-2v-30h16v-16z" fill="rgb(252,252,252)"/>
<path d="M384 16h14v2h-12v14h-2v-16z" fill="rgb(252,252,252)"/>
<path d="M430 16h16v2h-16v-2z" fill="rgb(252,252,252)"/>
<path d="M464 16h30v2h-28v28h-2v-30z" fill="rgb(252,252,252)"/>
<path d="M496 16h14v2h-12v44h-2v-46z" fill="rgb(252,252,252)"/>
<path d="M50 18h44v12h-16v16h-12v-14h-2v-2h-14v-12z" fill="rgb(116,116,116)"/>
<path d="M98 18h28v12h-16v16h-28v-12h16v-16z" fill="rgb(116,116,116)"/>
<path d="M162 18h44v28h-12v-16h-32v-12z" fill="rgb(116,116,116)"/>
<path d="M226 18h12v44h-28v-12h16v-32z" fill="rgb(116,116,116)"/>
<path d="M258 18h12v44h-12v-16h-16v-12h14v-2h2v-14z" fill="rgb(116,116,116)"/>
<path d="M274 18h28v28h-28v-28z" fill="rgb(116,116,116)"/>
<path d="M322 18h12v28h-16v16h-12v-28h16v-16z" fill="rgb(116,116,116)"/>
<path d="M386 18h12v14h2v2h14v12h-44v-12h14v-2h2v-14z" fill="rgb(116,116,116)"/>
<path d="M466 18h28v28h-28v-28z" fill="rgb(116,116,116)"/>
<path d="M498 18h12v16h2v12h-2v16h-12v-44z" fill="rgb(116,116,116)"/>
<path d="M192 30h2v16h-2v-16z" fill="rgb(252,252,252)"/>
<path d="M0 32h46v2h-44v28h-2v-30z" fill="rgb(252,252,252)"/>
<path d="M48 32h14v2h-12v14h-2v-16z" fill="rgb(252,252,252)"/>
<path d="M64 32h2v14h-2v-14z" fill="rgb(252,252,252)"/>
<path d="M128 32h62v2h-60v12h-2v-14z" fill="rgb(252,252,252)"/>
<path d="M240 32h16v2h-14v12h-2v-14z" fill="rgb(252,252,252)"/>
<path d="M369 32h15v2h-14v12h-1v-14z" fill="rgb(252,252,252)"/>
<path d="M400 32h14v2h-14v-2z" fill="rgb(252,252,252)"/>
<path d="M510 32h2v2h-2v-2z" fill="rgb(252,252,252)"/>
<path d="M2 34h44v12h-32v16h-12v-28z" fill="rgb(116,116,116)"/>
<path d="M50 34h12v14h2v2h14v12h-44v-12h14v-2h2v-14z" fill="rgb(116,116,116)"/>
<path d="M130 34h60v12h-60v-12z" fill="rgb(116,116,116)"/>
<path d="M256 46h2v16h-2v-16z" fill="rgb(252,252,252)"/>
<path d="M16 48h14v2h-12v16h-16v28h-2v-30h16v-16z" fill="rgb(252,252,252)"/>
<path d="M32 48h16v2h-14v12h-2v-14z" fill="rgb(252,252,252)"/>
<path d="M64 48h14v2h-14v-2z" fill="rgb(252,252,252)"/>
<path d="M480 48h14v2h-12v28h-2v-30z" fill="rgb(252,252,252)"/>
<path d="M18 50h12v28h-16v16h-12v-28h16v-16z" fill="rgb(116,116,116)"/>
<path d="M482 50h12v16h16v28h-12v-16h-16v-28z" fill="rgb(116,116,116)"/>
<path d="M494 64h16v2h-16v-2z" fill="rgb(252,252,252)"/>
<path d="M496 78h2v16h-2v-16z" fill="rgb(252,252,252)"/>
<path d="M480 80h14v2h-12v60h-2v-62z" fill="rgb(252,252,252)"/>
<path d="M482 82h12v60h-12v-60z" fill="rgb(116,116,116)"/>
<path d="M0 94h14v2h-14v-2z" fill="rgb(0,0,0)"/>
<path d="M0 96h28v2h-26v44h-2v-46z" fill="rgb(252,252,252)"/>
<path d="M28 96h2v14h-16v32h-12v-44h26v-2z" fill="rgb(116,116,116)"/>
<path d="M496 96h14v2h-12v60h-2v-62z" fill="rgb(252,252,252)"/>
<path d="M498 98h12v60h-12v-60z" fill="rgb(116,116,116)"/>
<path d="M464 128h14v2h-12v28h-2v-30z" fill="rgb(252,252,252)"/>
<path d="M466 130h12v16h16v28h-12v-16h-16v-28z" fill="rgb(116,116,116)"/>
<path d="M0 142h14v2h-14v-2z" fill="rgb(0,0,0)"/>
<path d="M0 144h46v2h-44v28h-2v-30z" fill="rgb(252,252,252)"/>
<path d="M478 144h16v2h-16v-2z" fill="rgb(252,252,252)"/>
<path d="M2 146h44v12h-32v16h-12v-28z" fill="rgb(116,116,116)"/>
<path d="M14 158h16v2h-14v16h-16v-2h14v-16z" fill="rgb(0,0,0)"/>
<path d="M480 158h2v16h-2v-16z" fill="rgb(252,252,252)"/>
<path d="M16 160h14v2h-12v14h28v2h-44v12h-2v-14h16v-16z" fill="rgb(252,252,252)"/>
<path d="M496 160h14v2h-12v44h-2v-46z" fill="rgb(252,252,252)"/>
<path d="M18 162h12v14h-12v-14z" fill="rgb(116,116,116)"/>
<path d="M498 162h12v16h2v12h-2v16h-12v-44z" fill="rgb(116,116,116)"/>
<path d="M480 176h14v2h-12v44h-2v-46z" fill="rgb(252,252,252)"/>
<path d="M510 176h2v2h-2v-2z" fill="rgb(252,252,252)"/>
<path d="M2 178h44v12h-16v16h-12v-14h-2v-2h-14v-12z" fill="rgb(116,116,116)"/>
<path d="M482 178h12v32h16v12h-28v-44z" fill="rgb(116,116,116)"/>
<path d="M0 190h16v16h14v2h-30v-2h14v-14h-14v-2z" fill="rgb(0,0,0)"/>
<path d="M0 192h14v2h-14v-2z" fill="rgb(252,252,252)"/>
<path d="M16 192h2v14h-2v-14z" fill="rgb(252,252,252)"/>
<path d="M0 194h14v12h-14v-12z" fill="rgb(116,116,116)"/>
<path d="M0 208h30v2h-28v28h-2v-30z" fill="rgb(252,252,252)"/>
<path d="M494 208h16v2h-16v-2z" fill="rgb(252,252,252)"/>
<path d="M2 210h28v28h-28v-28z" fill="rgb(116,116,116)"/>
<path d="M464 224h46v2h-44v12h-2v-14z" fill="rgb(252,252,252)"/>
<path d="M466 226h44v28h-12v-16h-32v-12z" fill="rgb(116,116,116)"/>
<path d="M0 238h30v2h-30v-2z" fill="rgb(0,0,0)"/>
<path d="M496 238h2v16h-2v-16z" fill="rgb(252,252,252)"/>
<path d="M0 240h28v2h-26v44h-2v-46z" fill="rgb(252,252,252)"/>
<path d="M28 240h2v14h-16v32h-12v-44h26v-2z" fill="rgb(116,116,116)"/>
<path d="M448 240h46v2h-44v12h-2v-14z" fill="rgb(252,252,252)"/>
<path d="M450 242h44v12h-16v16h-12v-14h-2v-2h-14v-12z" fill="rgb(116,116,116)"/>
<path d="M14 254h16v2h-14v30h16v16h14v2h-16v-16h-30v-2h14v-32z" fill="rgb(0,0,0)"/>
<path d="M16 256h14v2h-12v28h-2v-30z" fill="rgb(252,252,252)"/>
<path d="M464 256h2v14h-2v-14z" fill="rgb(252,252,252)"/>
<path d="M480 256h30v2h-28v12h-2v-14z" fill="rgb(252,252,252)"/>
<path d="M18 258h12v16h16v28h-12v-16h-16v-28z" fill="rgb(116,116,116)"/>
<path d="M482 258h28v44h-12v-32h-16v-12z" fill="rgb(116,116,116)"/>
<path d="M496 270h2v32h-2v-32z" fill="rgb(252,252,252)"/>
<path d="M30 272h16v2h-16v-2z" fill="rgb(252,252,252)"/>
<path d="M480 272h14v2h-12v16h-16v28h-2v-30h16v-16z" fill="rgb(252,252,252)"/>
<path d="M482 274h12v28h-16v16h-12v-28h16v-16z" fill="rgb(116,116,116)"/>
<path d="M32 286h2v16h-2v-16z" fill="rgb(252,252,252)"/>
<path d="M0 288h30v2h-12v44h-2v-44h-16v-2z" fill="rgb(252,252,252)"/>
<path d="M0 290h16v12h-16v-12z" fill="rgb(116,116,116)"/>
<path d="M18 290h12v16h16v12h-16v16h-12v-44z" fill="rgb(116,116,116)"/>
<path d="M0 302h16v32h14v2h-16v-32h-14v-2z" fill="rgb(0,0,0)"/>
<path d="M0 304h14v2h-12v44h-2v-46z" fill="rgb(252,252,252)"/>
<path d="M30 304h16v2h-16v-2z" fill="rgb(252,252,252)"/>
<path d="M480 304h28v2h-26v44h-2v-46z" fill="rgb(252,252,252)"/>
<path d="M508 304h2v14h-16v32h-12v-44h26v-2z" fill="rgb(116,116,116)"/>
<path d="M2 306h12v32h16v12h-28v-44z" fill="rgb(116,116,116)"/>
<path d="M496 320h16v2h-14v12h-2v-14z" fill="rgb(252,252,252)"/>
<path d="M498 322h14v12h-14v-12z" fill="rgb(116,116,116)"/>
<path d="M14 336h16v2h-16v-2z" fill="rgb(252,252,252)"/>
<path d="M496 336h14v2h-12v16h-16v28h-2v-30h16v-16z" fill="rgb(252,252,252)"/>
<path d="M498 338h12v28h-16v16h-12v-28h16v-16z" fill="rgb(116,116,116)"/>
<path d="M0 350h30v2h-30v-2z" fill="rgb(0,0,0)"/>
<path d="M0 352h46v2h-46v-2z" fill="rgb(252,252,252)"/>
<path d="M0 354h46v12h-46v-12z" fill="rgb(116,116,116)"/>
<path d="M0 366h30v2h-14v62h14v-14h2v32h-2v-16h-30v-2h14v-30h-14v-2h14v-30h-14
	v-2z" fill="rgb(0,0,0)"/>
<path d="M0 368h14v2h-14v-2z" fill="rgb(252,252,252)"/>
<path d="M16 368h14v2h-12v60h-2v-62z" fill="rgb(252,252,252)"/>
<path d="M496 368h14v2h-12v16h-32v12h-2v-14h32v-16z" fill="rgb(252,252,252)"/>
<path d="M0 370h14v28h-14v-28z" fill="rgb(116,116,116)"/>
<path d="M18 370h12v60h-12v-60z" fill="rgb(116,116,116)"/>
<path d="M498 370h12v28h-44v-12h32v-16z" fill="rgb(116,116,116)"/>
<path d="M0 400h14v2h-14v-2z" fill="rgb(252,252,252)"/>
<path d="M480 400h30v2h-28v28h-2v-30z" fill="rgb(252,252,252)"/>
<path d="M416 401h14v1h-12v14h-2v-15z" fill="rgb(252,252,252)"/>
<path d="M0 402h14v28h-12v-16h-2v-12z" fill="rgb(116,116,116)"/>
<path d="M418 402h12v44h-12v-16h-16v-12h14v-2h2v-14z" fill="rgb(116,116,116)"/>
<path d="M482 402h28v28h-28v-28z" fill="rgb(116,116,116)"/>
<path d="M0 414h2v16h-2v-16z" fill="rgb(252,252,252)"/>
<path d="M32 416h14v2h-12v30h-2v-32z" fill="rgb(252,252,252)"/>
<path d="M96 416h30v2h-28v12h-2v-14z" fill="rgb(252,252,252)"/>
<path d="M192 416h14v2h-12v30h-2v-32z" fill="rgb(252,252,252)"/>
<path d="M206 416h2v14h32v16h14v-14h2v16h-18v-16h-30v14h16v2h-18v-32z" fill="rgb(0,0,0)"/>
<path d="M208 416h46v2h-44v12h-2v-14z" fill="rgb(252,252,252)"/>
<path d="M272 416h28v2h-26v30h-2v-32z" fill="rgb(252,252,252)"/>
<path d="M300 416h2v14h-16v18h-12v-30h26v-2z" fill="rgb(116,116,116)"/>
<path d="M302 416h2v16h-16v14h30v-16h16v-14h2v16h-16v14h16v2h-50v-18h16v-14z" fill="rgb(0,0,0)"/>
<path d="M304 416h30v2h-28v16h-16v12h-2v-14h16v-16z" fill="rgb(252,252,252)"/>
<path d="M336 416h14v2h-12v14h-2v-16z" fill="rgb(252,252,252)"/>
<path d="M368 416h14v2h-12v16h-16v14h-2v-16h16v-16z" fill="rgb(252,252,252)"/>
<path d="M382 416h2v30h16v2h-34v-2h16v-30z" fill="rgb(0,0,0)"/>
<path d="M384 416h14v2h-12v28h-2v-30z" fill="rgb(252,252,252)"/>
<path d="M400 416h16v2h-14v12h-2v-14z" fill="rgb(252,252,252)"/>
<path d="M432 416h46v2h-44v28h-2v-30z" fill="rgb(252,252,252)"/>
<path d="M34 418h12v16h16v12h-16v2h-12v-30z" fill="rgb(116,116,116)"/>
<path d="M98 418h28v16h16v12h-28v-16h-16v-12z" fill="rgb(116,116,116)"/>
<path d="M194 418h12v30h-12v-30z" fill="rgb(116,116,116)"/>
<path d="M210 418h44v28h-12v-16h-32v-12z" fill="rgb(116,116,116)"/>
<path d="M306 418h28v12h-16v16h-28v-12h16v-16z" fill="rgb(116,116,116)"/>
<path d="M338 418h12v30h-12v-2h-16v-12h14v-2h2v-14z" fill="rgb(116,116,116)"/>
<path d="M370 418h12v28h-16v2h-12v-14h16v-16z" fill="rgb(116,116,116)"/>
<path d="M386 418h12v16h16v14h-12v-2h-16v-28z" fill="rgb(116,116,116)"/>
<path d="M434 418h44v12h-32v16h-12v-28z" fill="rgb(116,116,116)"/>
<path d="M96 430h16v16h30v-14h2v14h16v2h-50v-16h-14v-2z" fill="rgb(0,0,0)"/>
<path d="M112 430h2v16h-2v-16z" fill="rgb(252,252,252)"/>
<path d="M240 430h2v16h-2v-16z" fill="rgb(252,252,252)"/>
<path d="M416 430h2v16h-2v-16z" fill="rgb(252,252,252)"/>
<path d="M0 432h30v2h-28v14h-2v-16z" fill="rgb(252,252,252)"/>
<path d="M46 432h16v2h-16v-2z" fill="rgb(252,252,252)"/>
<path d="M80 432h14v2h-12v14h-2v-16z" fill="rgb(252,252,252)"/>
<path d="M94 432h2v16h-2v-16z" fill="rgb(0,0,0)"/>
<path d="M96 432h14v2h-12v14h-2v-16z" fill="rgb(252,252,252)"/>
<path d="M126 432h16v2h-16v-2z" fill="rgb(252,252,252)"/>
<path d="M144 432h46v2h-44v12h-2v-14z" fill="rgb(252,252,252)"/>
<path d="M190 432h2v16h-18v-2h16v-14z" fill="rgb(0,0,0)"/>
<path d="M208 432h30v2h-28v12h-2v-14z" fill="rgb(252,252,252)"/>
<path d="M256 432h14v2h-12v14h-2v-16z" fill="rgb(252,252,252)"/>
<path d="M270 432h2v16h-2v-16z" fill="rgb(0,0,0)"/>
<path d="M320 432h16v2h-14v12h-2v-14z" fill="rgb(252,252,252)"/>
<path d="M350 432h2v16h-2v-16z" fill="rgb(0,0,0)"/>
<path d="M398 432h16v2h-16v-2z" fill="rgb(252,252,252)"/>
<path d="M448 432h14v2h-12v14h-2v-16z" fill="rgb(252,252,252)"/>
<path d="M464 432h30v2h-28v12h-2v-14z" fill="rgb(252,252,252)"/>
<path d="M496 432h16v2h-14v12h-2v-14z" fill="rgb(252,252,252)"/>
<path d="M2 434h28v14h-28v-14z" fill="rgb(116,116,116)"/>
<path d="M82 434h12v14h-12v-14z" fill="rgb(116,116,116)"/>
<path d="M98 434h12v14h-12v-14z" fill="rgb(116,116,116)"/>
<path d="M146 434h44v12h-16v2h-14v-2h-14v-12z" fill="rgb(116,116,116)"/>
<path d="M210 434h28v14h-12v-2h-16v-12z" fill="rgb(116,116,116)"/>
<path d="M258 434h12v14h-12v-14z" fill="rgb(116,116,116)"/>
<path d="M450 434h12v14h-12v-14z" fill="rgb(116,116,116)"/>
<path d="M466 434h28v14h-12v-2h-16v-12z" fill="rgb(116,116,116)"/>
<path d="M498 434h14v12h-14v-12z" fill="rgb(116,116,116)"/>
<path d="M46 446h16v2h-16v-2z" fill="rgb(0,0,0)"/>
<path d="M224 446h2v2h-2v-2z" fill="rgb(252,252,252)"/>
<path d="M336 446h2v2h-2v-2z" fill="rgb(252,252,252)"/>
<path d="M400 446h2v2h-2v-2z" fill="rgb(252,252,252)"/>
<path d="M480 446h2v2h-2v-2z" fill="rgb(252,252,252)"/>
</svg>