<?xml version="1.0" encoding="utf-8"?>
<!-- generated at drububu.com  -->
<!DOCTYPE svg PUBLIC "-//W3C//DTD SVG 1.1//EN" "http://www.w3.org/Graphics/SVG/1.1/DTD/svg11.dtd">
<svg version="1.1" preserveAspectRatio="xMinYMin meet" xmlns="http://www.w3.org/2000/svg" xmlns:xlink="http://www.w3.org/1999/xlink" x="0px" y="0px" width="16px" height="16px" viewBox="0 0 16 16">
<path d="M0 0h7v3h-7v-3z" fill="rgb(0,123,139)"/>
<path d="M7 0h1v3h7v-3h1v4h-4v3h4v5h-4v3h4v1h-16v-1h3v-3h-3v-1h7v-3h-7v-1h3v-3
	h-3v-1h7v-3z" fill="rgb(0,66,74)"/>
<path d="M8 0h7v3h-7v-3z" fill="rgb(0,123,139)"/>
<path d="M0 4h3v3h-3v-3z" fill="rgb(0,123,139)"/>
<path d="M4 4h7v3h-7v-3z" fill="rgb(0,123,139)"/>
<path d="M12 4h4v3h-4v-3z" fill="rgb(0,123,139)"/>
<path d="M0 8h7v3h-7v-3z" fill="rgb(0,123,139)"/>
<path d="M8 8h7v3h-7v-3z" fill="rgb(0,123,139)"/>
<path d="M0 12h3v3h-3v-3z" fill="rgb(0,123,139)"/>
<path d="M4 12h7v3h-7v-3z" fill="rgb(0,123,139)"/>
<path d="M12 12h4v3h-4v-3z" fill="rgb(0,123,139)"/>
</svg>