<?xml version="1.0" encoding="UTF-8"?>
<svg xmlns="http://www.w3.org/2000/svg" xmlns:xlink="http://www.w3.org/1999/xlink" width="20pt" height="20pt" viewBox="0 0 20 20" version="1.1">
<g id="surface1">
<path style=" stroke:none;fill-rule:nonzero;fill:rgb(13.333333%,35.686275%,61.176471%);fill-opacity:1;" d="M 0 0 L 20 0 L 20 20 L 13.75 20 L 13.75 11.667969 L 17.082031 11.667969 L 17.082031 8.332031 L 13.75 8.332031 L 13.75 6.667969 L 17.082031 6.667969 L 17.082031 3.332031 L 12.082031 3.332031 L 12.082031 5 L 10.417969 5 L 10.417969 8.332031 L 7.082031 8.332031 L 7.082031 11.667969 L 10.207031 11.667969 L 10.207031 20 L 0 20 Z M 0 0 "/>
<path style=" stroke:none;fill-rule:nonzero;fill:rgb(100%,99.215686%,100%);fill-opacity:1;" d="M 12.082031 3.332031 L 17.082031 3.332031 L 17.082031 6.667969 L 13.75 6.667969 L 13.75 8.332031 L 17.082031 8.332031 L 17.082031 11.667969 L 13.75 11.667969 L 13.75 20 L 10.207031 20 L 10.207031 19.792969 L 10.417969 19.792969 L 10.417969 18.332031 L 10.207031 18.332031 L 10.207031 15 L 10.417969 15 L 10.417969 14.582031 L 10.207031 14.582031 L 10.207031 14.167969 L 10.417969 14.167969 L 10.417969 12.707031 L 10.207031 12.707031 L 10.207031 12.5 L 10.417969 12.5 L 10.417969 12.292969 L 10.207031 12.292969 L 10.207031 11.667969 L 7.082031 11.667969 L 7.082031 8.332031 L 10.417969 8.332031 L 10.417969 5 L 12.082031 5 Z M 12.082031 3.332031 "/>
<path style=" stroke:none;fill-rule:nonzero;fill:rgb(96.078431%,95.294118%,97.254902%);fill-opacity:1;" d="M 10.207031 12.292969 L 10.417969 12.292969 L 10.417969 12.5 L 10.207031 12.5 Z M 10.207031 12.292969 "/>
<path style=" stroke:none;fill-rule:nonzero;fill:rgb(84.705882%,85.882353%,91.372549%);fill-opacity:1;" d="M 10.207031 12.707031 L 10.417969 12.707031 L 10.417969 12.917969 L 10.207031 12.917969 Z M 10.207031 12.707031 "/>
<path style=" stroke:none;fill-rule:nonzero;fill:rgb(96.078431%,95.294118%,97.254902%);fill-opacity:1;" d="M 10.207031 12.917969 L 10.417969 12.917969 L 10.417969 13.332031 L 10.207031 13.332031 Z M 10.207031 12.917969 "/>
<path style=" stroke:none;fill-rule:nonzero;fill:rgb(90.588235%,91.764706%,94.117647%);fill-opacity:1;" d="M 10.207031 13.332031 L 10.417969 13.332031 L 10.417969 13.75 L 10.207031 13.75 Z M 10.207031 13.332031 "/>
<path style=" stroke:none;fill-rule:nonzero;fill:rgb(96.078431%,95.294118%,97.254902%);fill-opacity:1;" d="M 10.207031 13.75 L 10.417969 13.75 L 10.417969 14.167969 L 10.207031 14.167969 Z M 10.207031 13.75 "/>
<path style=" stroke:none;fill-rule:nonzero;fill:rgb(96.078431%,95.294118%,97.254902%);fill-opacity:1;" d="M 10.207031 14.582031 L 10.417969 14.582031 L 10.417969 15 L 10.207031 15 Z M 10.207031 14.582031 "/>
<path style=" stroke:none;fill-rule:nonzero;fill:rgb(97.647059%,96.862745%,98.431373%);fill-opacity:1;" d="M 10.207031 18.332031 L 10.417969 18.332031 L 10.417969 19.167969 L 10.207031 19.167969 Z M 10.207031 18.332031 "/>
<path style=" stroke:none;fill-rule:nonzero;fill:rgb(97.647059%,96.862745%,98.039216%);fill-opacity:1;" d="M 10.207031 19.167969 L 10.417969 19.167969 L 10.417969 19.582031 L 10.207031 19.582031 Z M 10.207031 19.167969 "/>
<path style=" stroke:none;fill-rule:nonzero;fill:rgb(81.176471%,84.313725%,88.235294%);fill-opacity:1;" d="M 10.207031 19.582031 L 10.417969 19.582031 L 10.417969 19.792969 L 10.207031 19.792969 Z M 10.207031 19.582031 "/>
</g>
</svg>
