<?xml version="1.0" encoding="utf-8"?>
<!-- generated at drububu.com  -->
<!DOCTYPE svg PUBLIC "-//W3C//DTD SVG 1.1//EN" "http://www.w3.org/Graphics/SVG/1.1/DTD/svg11.dtd">
<svg version="1.1" preserveAspectRatio="xMinYMin meet" xmlns="http://www.w3.org/2000/svg" xmlns:xlink="http://www.w3.org/1999/xlink" x="0px" y="0px" width="20px" height="20px" viewBox="0 0 20 20">
<path d="M0 0h20v4h-20v-4z" fill="rgb(238,39,46)"/>
<path d="M1 2h1v1h-1v-1z" fill="rgb(239,44,53)"/>
<path d="M2 2h12v1h-12v-1z" fill="rgb(238,41,51)"/>
<path d="M0 4h20v1h-20v-1z" fill="rgb(239,104,72)"/>
<path d="M0 5h20v1h-20v-1z" fill="rgb(239,106,71)"/>
<path d="M0 6h1v1h-1v-1z" fill="rgb(238,105,78)"/>
<path d="M1 6h19v2h-20v-1h1v-1z" fill="rgb(239,104,72)"/>
<path d="M0 8h20v2h-19v-1h-1v-1z" fill="rgb(255,208,24)"/>
<path d="M0 9h1v1h-1v-1z" fill="rgb(255,206,25)"/>
<path d="M0 10h1v1h-1v-1z" fill="rgb(255,206,24)"/>
<path d="M1 10h19v2h-20v-1h1v-1z" fill="rgb(255,206,25)"/>
<path d="M0 12h20v1h-20v-1z" fill="rgb(79,185,74)"/>
<path d="M0 13h1v1h-1v-1z" fill="rgb(81,187,80)"/>
<path d="M1 13h1v1h-1v-1z" fill="rgb(75,186,81)"/>
<path d="M2 13h18v1h-18v-1z" fill="rgb(75,186,82)"/>
<path d="M0 14h20v2h-20v-2z" fill="rgb(79,185,74)"/>
<path d="M0 16h20v1h-3v1h-13v-1h-3v1h-1v-2z" fill="rgb(18,169,228)"/>
<path d="M1 17h1v1h-1v-1z" fill="rgb(10,166,235)"/>
<path d="M2 17h2v1h-2v-1z" fill="rgb(7,165,235)"/>
<path d="M17 17h3v1h-3v-1z" fill="rgb(7,165,235)"/>
<path d="M0 18h20v1h-20v-1z" fill="rgb(0,163,226)"/>
<path d="M0 19h20v1h-20v-1z" fill="rgb(18,169,228)"/>
</svg>