<?xml version="1.0" encoding="UTF-8"?>
<svg xmlns="http://www.w3.org/2000/svg" xmlns:xlink="http://www.w3.org/1999/xlink" width="20pt" height="20pt" viewBox="0 0 20 20" version="1.1">
<g id="surface1">
<rect x="0" y="0" width="20" height="20" style="fill:rgb(0%,67.058824%,90.196078%);fill-opacity:1;stroke:none;"/>
<path style=" stroke:none;fill-rule:nonzero;fill:rgb(96.470588%,100%,100%);fill-opacity:1;" d="M 11.25 2.707031 L 14.375 2.707031 L 14.375 3.542969 L 15.417969 3.542969 L 15.417969 4.582031 L 16.457031 4.582031 L 16.457031 3.957031 L 17.707031 3.957031 L 17.707031 4.375 L 17.082031 4.375 L 17.082031 5.207031 L 16.667969 5.207031 L 16.667969 5.832031 L 17.917969 5.832031 L 17.917969 6.667969 L 17.082031 6.667969 L 17.082031 7.5 L 16.667969 7.5 L 16.667969 9.167969 L 16.042969 9.167969 L 16.042969 10 L 15.832031 10 L 15.832031 10.832031 L 16.042969 10.832031 L 16.042969 11.042969 L 15.832031 11.042969 L 15.832031 11.25 L 15 11.25 L 15 12.5 L 14.375 12.5 L 14.375 13.957031 L 13.542969 13.957031 L 13.542969 15 L 12.292969 15 L 12.292969 15.832031 L 10.832031 15.832031 L 10.832031 16.457031 L 9.375 16.457031 L 9.375 17.292969 L 3.125 17.292969 L 3.125 16.457031 L 2.082031 16.457031 L 2.082031 15.832031 L 5.207031 15.832031 L 5.207031 15.417969 L 6.25 15.417969 L 6.25 14.582031 L 6.875 14.582031 L 6.875 13.75 L 4.582031 13.75 L 4.582031 13.125 L 3.75 13.125 L 3.75 11.875 L 4.582031 11.875 L 4.582031 10.417969 L 3.542969 10.417969 L 3.542969 9.582031 L 2.5 9.582031 L 2.5 8.75 L 3.957031 8.75 L 3.957031 7.707031 L 3.332031 7.707031 L 3.332031 6.667969 L 2.292969 6.667969 L 2.292969 5.207031 L 3.332031 5.207031 L 3.332031 4.582031 L 3.957031 4.582031 L 3.957031 5.207031 L 5 5.207031 L 5 5.832031 L 6.457031 5.832031 L 6.457031 6.457031 L 7.082031 6.457031 L 7.082031 7.292969 L 8.75 7.292969 L 8.75 7.917969 L 9.375 7.917969 L 9.375 4.582031 L 10 4.582031 L 10 3.542969 L 11.25 3.542969 Z M 11.25 2.707031 "/>
<path style=" stroke:none;fill-rule:nonzero;fill:rgb(91.372549%,100%,85.490196%);fill-opacity:1;" d="M 17.5 6.042969 L 17.707031 6.042969 L 17.707031 6.25 L 17.5 6.25 Z M 17.5 6.042969 "/>
<path style=" stroke:none;fill-rule:nonzero;fill:rgb(95.686275%,97.254902%,86.666667%);fill-opacity:1;" d="M 3.332031 6.25 L 3.542969 6.25 L 3.542969 6.457031 L 3.332031 6.457031 Z M 3.332031 6.25 "/>
<path style=" stroke:none;fill-rule:nonzero;fill:rgb(100%,94.117647%,86.666667%);fill-opacity:1;" d="M 16.667969 6.25 L 16.875 6.25 L 16.875 6.457031 L 16.667969 6.457031 Z M 16.667969 6.25 "/>
<path style=" stroke:none;fill-rule:nonzero;fill:rgb(100%,94.901961%,84.313725%);fill-opacity:1;" d="M 7.917969 7.5 L 8.125 7.5 L 8.125 7.707031 L 7.917969 7.707031 Z M 7.917969 7.5 "/>
<path style=" stroke:none;fill-rule:nonzero;fill:rgb(100%,95.294118%,84.705882%);fill-opacity:1;" d="M 8.125 7.5 L 8.332031 7.5 L 8.332031 7.917969 L 8.125 7.917969 Z M 8.125 7.5 "/>
<path style=" stroke:none;fill-rule:nonzero;fill:rgb(100%,96.862745%,86.666667%);fill-opacity:1;" d="M 7.917969 7.707031 L 8.125 7.707031 L 8.125 7.917969 L 7.917969 7.917969 Z M 7.917969 7.707031 "/>
<path style=" stroke:none;fill-rule:nonzero;fill:rgb(73.333333%,100%,100%);fill-opacity:1;" d="M 15.832031 10 L 16.042969 10 L 16.042969 10.207031 L 15.832031 10.207031 Z M 15.832031 10 "/>
<path style=" stroke:none;fill-rule:nonzero;fill:rgb(74.509804%,100%,100%);fill-opacity:1;" d="M 15.832031 10.207031 L 16.042969 10.207031 L 16.042969 10.417969 L 15.832031 10.417969 Z M 15.832031 10.207031 "/>
<path style=" stroke:none;fill-rule:nonzero;fill:rgb(75.686275%,100%,100%);fill-opacity:1;" d="M 15.832031 10.417969 L 16.042969 10.417969 L 16.042969 10.832031 L 15.832031 10.832031 Z M 15.832031 10.417969 "/>
<path style=" stroke:none;fill-rule:nonzero;fill:rgb(100%,97.254902%,87.058824%);fill-opacity:1;" d="M 4.792969 10.832031 L 5 10.832031 L 5 11.042969 L 4.792969 11.042969 Z M 4.792969 10.832031 "/>
<path style=" stroke:none;fill-rule:nonzero;fill:rgb(100%,95.686275%,83.921569%);fill-opacity:1;" d="M 5.207031 11.042969 L 5.417969 11.042969 L 5.417969 11.25 L 5.207031 11.25 Z M 5.207031 11.042969 "/>
<path style=" stroke:none;fill-rule:nonzero;fill:rgb(72.54902%,100%,100%);fill-opacity:1;" d="M 15.832031 11.042969 L 16.042969 11.042969 L 16.042969 11.25 L 15.832031 11.25 Z M 15.832031 11.042969 "/>
<path style=" stroke:none;fill-rule:nonzero;fill:rgb(100%,98.039216%,86.666667%);fill-opacity:1;" d="M 5.417969 12.292969 L 5.625 12.292969 L 5.625 12.5 L 5.417969 12.5 Z M 5.417969 12.292969 "/>
<path style=" stroke:none;fill-rule:nonzero;fill:rgb(100%,97.254902%,85.882353%);fill-opacity:1;" d="M 5.625 12.292969 L 5.832031 12.292969 L 5.832031 12.5 L 5.625 12.5 Z M 5.625 12.292969 "/>
</g>
</svg>
