<?xml version="1.0" encoding="UTF-8"?>
<svg xmlns="http://www.w3.org/2000/svg" xmlns:xlink="http://www.w3.org/1999/xlink" width="20pt" height="20pt" viewBox="0 0 20 20" version="1.1">
<g id="surface1">
<rect x="0" y="0" width="20" height="20" style="fill:rgb(85.490196%,10.196078%,13.333333%);fill-opacity:1;stroke:none;"/>
<path style=" stroke:none;fill-rule:nonzero;fill:rgb(100%,100%,100%);fill-opacity:1;" d="M 5.832031 4.792969 L 6.457031 4.792969 L 6.457031 5 L 6.875 5 L 6.875 5.207031 L 7.292969 5.207031 L 7.292969 5.417969 L 7.707031 5.417969 L 7.707031 5.625 L 8.125 5.625 L 8.125 5.832031 L 8.542969 5.832031 L 8.542969 6.042969 L 8.957031 6.042969 L 8.957031 6.25 L 9.375 6.25 L 9.375 6.457031 L 9.792969 6.457031 L 9.792969 6.667969 L 10.207031 6.667969 L 10.207031 6.875 L 10.625 6.875 L 10.625 7.082031 L 11.25 7.082031 L 11.25 7.292969 L 11.667969 7.292969 L 11.667969 7.5 L 12.082031 7.5 L 12.082031 7.707031 L 12.5 7.707031 L 12.5 7.917969 L 12.917969 7.917969 L 12.917969 8.125 L 13.332031 8.125 L 13.332031 8.332031 L 13.75 8.332031 L 13.75 8.542969 L 14.167969 8.542969 L 14.167969 8.75 L 14.582031 8.75 L 14.582031 8.957031 L 15 8.957031 L 15 9.167969 L 15.417969 9.167969 L 15.417969 9.375 L 15.832031 9.375 L 15.832031 9.582031 L 16.042969 9.582031 L 16.042969 10.207031 L 15.832031 10.207031 L 15.832031 10.417969 L 15.417969 10.417969 L 15.417969 10.625 L 15 10.625 L 15 10.832031 L 14.582031 10.832031 L 14.582031 11.042969 L 14.167969 11.042969 L 14.167969 11.25 L 13.75 11.25 L 13.75 11.457031 L 13.332031 11.457031 L 13.332031 11.667969 L 12.917969 11.667969 L 12.917969 11.875 L 12.5 11.875 L 12.5 12.082031 L 12.082031 12.082031 L 12.082031 12.292969 L 11.667969 12.292969 L 11.667969 12.5 L 11.25 12.5 L 11.25 12.707031 L 10.625 12.707031 L 10.625 12.917969 L 10.207031 12.917969 L 10.207031 13.125 L 9.792969 13.125 L 9.792969 13.332031 L 9.375 13.332031 L 9.375 13.542969 L 8.957031 13.542969 L 8.957031 13.75 L 8.542969 13.75 L 8.542969 13.957031 L 8.125 13.957031 L 8.125 14.167969 L 7.707031 14.167969 L 7.707031 14.375 L 7.292969 14.375 L 7.292969 14.582031 L 6.875 14.582031 L 6.875 14.792969 L 6.457031 14.792969 L 6.457031 15 L 5.832031 15 Z M 5.832031 4.792969 "/>
</g>
</svg>
