<?xml version="1.0" encoding="utf-8"?>
<!-- generated at drububu.com  -->
<!DOCTYPE svg PUBLIC "-//W3C//DTD SVG 1.1//EN" "http://www.w3.org/Graphics/SVG/1.1/DTD/svg11.dtd">
<svg version="1.1" preserveAspectRatio="xMinYMin meet" xmlns="http://www.w3.org/2000/svg" xmlns:xlink="http://www.w3.org/1999/xlink" x="0px" y="0px" width="14px" height="14px" viewBox="0 0 14 14">
<path d="M0 0h2v2h-2v-2z" fill="rgb(255,255,255)"/>
<path d="M2 0h10v2h-10v-2z" fill="rgb(0,0,0)"/>
<path d="M12 0h2v2h-2v-2z" fill="rgb(255,255,255)"/>
<path d="M0 2h2v2h-2v-2z" fill="rgb(0,0,0)"/>
<path d="M2 2h10v4h-10v2h-2v-4h2v-2z" fill="rgb(255,255,255)"/>
<path d="M12 2h2v4h-2v-4z" fill="rgb(0,0,0)"/>
<path d="M2 6h10v2h-10v-2z" fill="rgb(0,0,0)"/>
<path d="M12 6h2v6h-12v-4h10v-2z" fill="rgb(255,255,255)"/>
<path d="M0 8h2v4h12v2h-14v-6z" fill="rgb(0,0,0)"/>
</svg>