<?xml version="1.0" encoding="utf-8"?>
<!-- generated at drububu.com  -->
<!DOCTYPE svg PUBLIC "-//W3C//DTD SVG 1.1//EN" "http://www.w3.org/Graphics/SVG/1.1/DTD/svg11.dtd">
<svg version="1.1" preserveAspectRatio="xMinYMin meet" xmlns="http://www.w3.org/2000/svg" xmlns:xlink="http://www.w3.org/1999/xlink" x="0px" y="0px" width="14px" height="14px" viewBox="0 0 14 14">
<path d="M0 0h14v3h-2v-2h-10v2h-2v-3z" fill="rgb(255,255,255)"/>
<path d="M2 1h10v2h-10v-2z" fill="rgb(0,0,0)"/>
<path d="M0 3h2v4h-2v-4z" fill="rgb(0,0,0)"/>
<path d="M2 3h10v4h-10v-4z" fill="rgb(255,255,255)"/>
<path d="M12 3h2v8h-2v-2h-10v-2h10v-4z" fill="rgb(0,0,0)"/>
<path d="M0 7h2v2h10v2h-10v2h10v-2h2v3h-14v-7z" fill="rgb(255,255,255)"/>
<path d="M2 11h10v2h-10v-2z" fill="rgb(0,0,0)"/>
</svg>