<?xml version="1.0" encoding="utf-8"?>
<!-- generated at drububu.com  -->
<!DOCTYPE svg PUBLIC "-//W3C//DTD SVG 1.1//EN" "http://www.w3.org/Graphics/SVG/1.1/DTD/svg11.dtd">
<svg version="1.1" preserveAspectRatio="xMinYMin meet" xmlns="http://www.w3.org/2000/svg" xmlns:xlink="http://www.w3.org/1999/xlink" x="0px" y="0px" width="14px" height="14px" viewBox="0 0 14 14">
<path d="M0 0h2v2h-2v-2z" fill="rgb(255,255,255)"/>
<path d="M2 0h10v2h-10v-2z" fill="rgb(0,0,0)"/>
<path d="M12 0h2v2h-2v-2z" fill="rgb(255,255,255)"/>
<path d="M0 2h2v2h-2v-2z" fill="rgb(0,0,0)"/>
<path d="M2 2h10v4h-4v2h-2v2h2v-2h4v-2h2v8h-6v-2h-2v2h-6v-10h2v-2z" fill="rgb(255,255,255)"/>
<path d="M12 2h2v4h-2v-4z" fill="rgb(0,0,0)"/>
<path d="M8 6h4v2h-4v-2z" fill="rgb(0,0,0)"/>
<path d="M6 8h2v2h-2v-2z" fill="rgb(0,0,0)"/>
<path d="M6 12h2v2h-2v-2z" fill="rgb(0,0,0)"/>
</svg>